<svg xmlns="http://www.w3.org/2000/svg" viewBox="0 0 48 48"><path d="M45 43H3a1 1 0 0 1-.986-.836l-1-6A1 1 0 0 1 2 35h44a1 1 0 0 1 .986 1.164l-1 6A1 1 0 0 1 45 43ZM3.847 41h40.306l.666-4H3.181Z"/><path d="M44 37H4a1 1 0 0 1-1-1V7a2.002 2.002 0 0 1 2-2h38a2.002 2.002 0 0 1 2 2v29a1 1 0 0 1-1 1ZM5 35h38V7H5Z"/><path d="M40 33H8a1 1 0 0 1-1-1V10a1 1 0 0 1 1-1h32a1 1 0 0 1 1 1v22a1 1 0 0 1-1 1ZM9 31h30V11H9Z"/><path d="M26 33a1 1 0 0 1-1-1V10a1 1 0 0 1 2 0v22a1 1 0 0 1-1 1zm-13-9a.997.997 0 0 1-.707-.293l-2-2a1 1 0 0 1 0-1.414l2-2a1 1 0 0 1 1.414 1.414L12.414 21l1.293 1.293A1 1 0 0 1 13 24zm8 0a1 1 0 0 1-.707-1.707L21.586 21l-1.293-1.293a1 1 0 0 1 1.414-1.414l2 2a1 1 0 0 1 0 1.414l-2 2A.997.997 0 0 1 21 24zm-4.999 2a1.001 1.001 0 0 1-.971-1.242l2-8a1 1 0 0 1 1.94.484l-2 8A1 1 0 0 1 16 26zM30 16h-1a1 1 0 0 1 0-2h1a1 1 0 0 1 0 2zm7 0h-4a1 1 0 0 1 0-2h4a1 1 0 0 1 0 2zm0 4h-1a1 1 0 0 1 0-2h1a1 1 0 0 1 0 2zm-6 8h-2a1 1 0 0 1 0-2h2a1 1 0 0 1 0 2zm6 0h-3a1 1 0 0 1 0-2h3a1 1 0 0 1 0 2zm-4-8h-4a1 1 0 0 1 0-2h4a1 1 0 0 1 0 2zm4 4h-8a1 1 0 0 1 0-2h8a1 1 0 0 1 0 2z"/></svg>